<svg id="icon_twitter" xmlns="http://www.w3.org/2000/svg" width="48" height="48" viewBox="0 0 48 48">
  <g id="Layer_4_copy_2">
    <g id="Group_6" data-name="Group 6">
      <circle id="Ellipse_4" data-name="Ellipse 4" cx="24" cy="24" r="24" fill="#d3d3d3"/>
      <circle id="Ellipse_5" data-name="Ellipse 5" cx="21.809" cy="21.809" r="21.809" transform="translate(2.191 2.191)" fill="#fff"/>
      <circle id="Ellipse_6" data-name="Ellipse 6" cx="19.597" cy="19.597" r="19.597" transform="translate(4.403 4.403)"/>
    </g>
  </g>
  <g id="Official_copy_3" transform="translate(17.381 18.123)">
    <path id="Path_8" data-name="Path 8" d="M18.049,10.261a2.971,2.971,0,0,0-2,2.988l.031.508-.513-.062a8.343,8.343,0,0,1-4.885-2.407L10,10.614l-.174.5a3,3,0,0,0,.636,3.072c.41.436.318.5-.39.239a1.21,1.21,0,0,0-.482-.114A3.719,3.719,0,0,0,9.963,15.7a3.318,3.318,0,0,0,1.406,1.328l.5.239-.6.01c-.575,0-.6.01-.533.229a3.1,3.1,0,0,0,1.919,1.7l.636.217-.554.332a5.768,5.768,0,0,1-2.751.768,3.027,3.027,0,0,0-.842.083,7.854,7.854,0,0,0,1.981.913,8.66,8.66,0,0,0,6.733-.768,9.02,9.02,0,0,0,3.418-4.027,10.711,10.711,0,0,0,.7-3.112c0-.478.031-.54.6-1.11a6.782,6.782,0,0,0,.719-.8c.1-.2.092-.2-.431-.021-.872.312-1,.27-.564-.2a3.024,3.024,0,0,0,.7-1.11c0-.031-.154.021-.329.114a5.663,5.663,0,0,1-.9.353l-.554.177-.5-.343a4.149,4.149,0,0,0-.872-.456A3.483,3.483,0,0,0,18.049,10.261Z" transform="translate(-9.152 -10.123)" fill="#fff"/>
  </g>
</svg>
