<svg id="icon_instagram" xmlns="http://www.w3.org/2000/svg" width="48" height="48" viewBox="0 0 48 48">
  <g id="Layer_4_copy_2">
    <g id="Group_5" data-name="Group 5">
      <circle id="Ellipse_1" data-name="Ellipse 1" cx="24" cy="24" r="24" fill="#d3d3d3"/>
      <circle id="Ellipse_2" data-name="Ellipse 2" cx="21.809" cy="21.809" r="21.809" transform="translate(2.191 2.191)" fill="#fff"/>
      <circle id="Ellipse_3" data-name="Ellipse 3" cx="19.597" cy="19.597" r="19.597" transform="translate(4.403 4.403)"/>
    </g>
  </g>
  <g id="Official_copy_3" transform="translate(17.317 17.317)">
    <path id="Path_7" data-name="Path 7" d="M21.012,9.317H10.988a1.645,1.645,0,0,0-1.671,1.671V21.012a1.645,1.645,0,0,0,1.671,1.671H21.012a1.646,1.646,0,0,0,1.671-1.671V10.988A1.645,1.645,0,0,0,21.012,9.317Zm-5,4.058a2.6,2.6,0,1,1-2.683,2.6A2.643,2.643,0,0,1,16.01,13.375Zm5,7.219c0,.293-.125.418-.418.418H11.4c-.292,0-.418-.125-.418-.418V14.747l1.041.226a3.883,3.883,0,0,0-.172,1.147,4.155,4.155,0,0,0,8.306,0,3.921,3.921,0,0,0-.172-1.147l1.021-.226v5.847Zm0-7.518a.418.418,0,0,1-.418.418H18.923a.418.418,0,0,1-.418-.418V11.405a.418.418,0,0,1,.418-.418h1.671a.418.418,0,0,1,.418.418Z" transform="translate(-9.317 -9.317)" fill="#fff"/>
  </g>
</svg>
