<svg xmlns="http://www.w3.org/2000/svg" width="162.505" height="25.025" viewBox="0 0 162.505 25.025">
  <path id="Path_16" data-name="Path 16" d="M.6-11.865l-.07-.56a4.67,4.67,0,0,1,1.7-2.905A19.662,19.662,0,0,1,6.16-18.06a25.748,25.748,0,0,1,7.56-2.17,33.169,33.169,0,0,1,4.918-.455,16.262,16.262,0,0,1,3.483.333A4.927,4.927,0,0,1,24.6-19.04a3.18,3.18,0,0,1,.98,2.328,3.634,3.634,0,0,1-1.138,2.537,7.406,7.406,0,0,1-2.852,1.82,21.267,21.267,0,0,1-6.37,1.365q1.5.91,2.485,1.593a15.854,15.854,0,0,1,2.1,1.8A6.218,6.218,0,0,1,21.245-5.67a4,4,0,0,1,.315,1.435A6.108,6.108,0,0,1,19.985-.28a7.182,7.182,0,0,1-2.922,2.065,10.343,10.343,0,0,1-3.972.77q-4.48,0-4.9-3.15a.285.285,0,0,1-.07-.21Q6.79,1.33,5.915,1.33a4.064,4.064,0,0,1-.787-.122q-.543-.122-.56-.262T4.55.35a8.968,8.968,0,0,1,.665-2.187Q5.88-3.57,6.72-5.25,8.365-8.4,9.975-11.34a2.636,2.636,0,0,0,.28-.945,2.642,2.642,0,0,0-.035-.49,5.484,5.484,0,0,1,1.7-2.572,4.277,4.277,0,0,1,2.818-1.593,2.937,2.937,0,0,1,1.12.315,1.345,1.345,0,0,1,.84.875.971.971,0,0,1,.017.3q-.018.053-.192-.017a.975.975,0,0,0-.21-.07q-1.12,0-2.677,1.663A23.515,23.515,0,0,0,10.64-9.8,61.579,61.579,0,0,0,6.37-1.75,3.2,3.2,0,0,0,6.09-.665q0,.525.455.525T7.77-1.1q.77-.963,1.085-.945a.794.794,0,0,1,.508.192.938.938,0,0,1,.262.367,2.34,2.34,0,0,1,.1.543A2.653,2.653,0,0,0,9.8-.49Q10.36,2,13.335,2h.14a7.387,7.387,0,0,0,4.13-1.12,3.69,3.69,0,0,0,1.89-3.132A6.233,6.233,0,0,0,17.745-6.2,18.821,18.821,0,0,0,16.1-7.77q-2.31-2-2.38-2.555a.933.933,0,0,1,.473-.928,1.819,1.819,0,0,1,1-.367,13.33,13.33,0,0,0,4.69-1.225q4.375-1.785,4.69-3.955v-.21a1.672,1.672,0,0,0-.56-1.19q-.945-1.015-3.99-1.015a37.583,37.583,0,0,0-9.7,1.505A20.382,20.382,0,0,0,4.41-15.12q-2.8,1.855-2.8,3.955a1.638,1.638,0,0,0,.28.892,1.748,1.748,0,0,0,.647.63,9.263,9.263,0,0,0,.963.42q.595.227.858.35t.175.3q-.088.175-.508.1a4.2,4.2,0,0,1-2.31-.962A2.592,2.592,0,0,1,.56-11.515,1.781,1.781,0,0,1,.6-11.865ZM26.04.385A2.663,2.663,0,0,1,24.832.053a3.162,3.162,0,0,1-1.1-.945A2.16,2.16,0,0,1,23.275-2.2a2.935,2.935,0,0,1,.315-1.33,9.159,9.159,0,0,1,2.257-2.853A20.256,20.256,0,0,1,29.085-8.75a11.194,11.194,0,0,1,2.66-1.225,7.851,7.851,0,0,1,1.908-.245,2.678,2.678,0,0,1,1.592.473,1.286,1.286,0,0,1,.665,1,.364.364,0,0,1-.035.21q-.035.035-.175-.035a1.907,1.907,0,0,0-1.732-.665,6.628,6.628,0,0,0-2.975.858A15.438,15.438,0,0,0,27.86-6.23a13.7,13.7,0,0,0-2.153,2.608A4.8,4.8,0,0,0,24.78-1.5q0,1.3.735,1.295a4.483,4.483,0,0,0,2.24-1.19,43.946,43.946,0,0,0,3.4-3.08,27.238,27.238,0,0,1,3.465-3.465A2.758,2.758,0,0,1,35.63-7.7q.6.245.385.595a11.142,11.142,0,0,0-2.1,5.075,7.543,7.543,0,0,0-.035.8,1.166,1.166,0,0,0,.28.805q.525.56,1.435.07a14.794,14.794,0,0,0,2.537-1.96A17.382,17.382,0,0,0,40.74-5.18a.236.236,0,0,1,.315-.087q.175.087.175.157,0,.525-1.663,2.293A20.545,20.545,0,0,1,37.03-.42,5.232,5.232,0,0,1,33.985.805,1.757,1.757,0,0,1,32.2-.525a3.9,3.9,0,0,1-.1-.945,9.365,9.365,0,0,1,.665-3.325,13.532,13.532,0,0,0-1.295,1.4A20.8,20.8,0,0,1,28.787-.84,4.59,4.59,0,0,1,26.04.385ZM50.05-9.94q.805,0,.805.858A5.532,5.532,0,0,1,50.05-6.72q-.805,1.505-1.19,2.45A7.227,7.227,0,0,0,48.195-1.7a2.032,2.032,0,0,0,.28,1.277Q49,.14,49.91-.368a16.131,16.131,0,0,0,2.538-1.96A16.869,16.869,0,0,0,55.055-5.18a.255.255,0,0,1,.332-.087q.193.087.193.175a.355.355,0,0,1-.07.193,13.638,13.638,0,0,1-1.89,2.415A17.34,17.34,0,0,1,50.995-.123,4.3,4.3,0,0,1,48.51.77,2.38,2.38,0,0,1,46.83.228a1.765,1.765,0,0,1-.49-1.277,7.751,7.751,0,0,1,.14-1.487A9.161,9.161,0,0,1,47-4.2a23.532,23.532,0,0,1,1.1-2.345,3.2,3.2,0,0,0,.472-1.1q0-.262-.28-.262-.56,0-2.135,1.365a32.922,32.922,0,0,0-3.2,3.832A27.824,27.824,0,0,1,40.565.28,5.526,5.526,0,0,1,38.99.91q-.315,0-.315-.105a.951.951,0,0,1,.07-.3q.07-.192.682-1.907t1.33-3.762q.717-2.048.875-2.467a4.179,4.179,0,0,0,.21-.718,3.613,3.613,0,0,1,.122-.507,1.784,1.784,0,0,1,.263-.472.648.648,0,0,1,.507-.28,3.614,3.614,0,0,1,.805.07q.49.088.49.438a3.557,3.557,0,0,1-.385,1.067q-.385.823-2.2,5.653,1.26-1.54,3.185-3.552A33.581,33.581,0,0,1,47.88-8.995,4.137,4.137,0,0,1,50.05-9.94ZM56.35.385A2.663,2.663,0,0,1,55.143.053a3.162,3.162,0,0,1-1.1-.945A2.16,2.16,0,0,1,53.585-2.2a2.935,2.935,0,0,1,.315-1.33,9.159,9.159,0,0,1,2.257-2.853A20.256,20.256,0,0,1,59.4-8.75a11.194,11.194,0,0,1,2.66-1.225,7.851,7.851,0,0,1,1.908-.245,2.678,2.678,0,0,1,1.592.473,1.286,1.286,0,0,1,.665,1,.364.364,0,0,1-.035.21q-.035.035-.175-.035a1.907,1.907,0,0,0-1.732-.665,6.628,6.628,0,0,0-2.975.858A15.438,15.438,0,0,0,58.17-6.23a13.7,13.7,0,0,0-2.153,2.608A4.8,4.8,0,0,0,55.09-1.5q0,1.3.735,1.295a4.483,4.483,0,0,0,2.24-1.19A43.946,43.946,0,0,0,61.46-4.48a27.237,27.237,0,0,1,3.465-3.465A2.758,2.758,0,0,1,65.94-7.7q.6.245.385.595a11.143,11.143,0,0,0-2.1,5.075,7.544,7.544,0,0,0-.035.8,1.166,1.166,0,0,0,.28.805q.525.56,1.435.07a14.794,14.794,0,0,0,2.538-1.96A17.382,17.382,0,0,0,71.05-5.18a.236.236,0,0,1,.315-.087q.175.087.175.157,0,.525-1.662,2.293A20.545,20.545,0,0,1,67.34-.42,5.232,5.232,0,0,1,64.295.805,1.757,1.757,0,0,1,62.51-.525,3.9,3.9,0,0,1,62.4-1.47a9.365,9.365,0,0,1,.665-3.325,13.532,13.532,0,0,0-1.295,1.4A20.8,20.8,0,0,1,59.1-.84,4.59,4.59,0,0,1,56.35.385Zm21.1-12.25-.07-.56a4.67,4.67,0,0,1,1.7-2.905,19.662,19.662,0,0,1,3.938-2.73,25.748,25.748,0,0,1,7.56-2.17,33.169,33.169,0,0,1,4.917-.455,16.262,16.262,0,0,1,3.483.333,4.927,4.927,0,0,1,2.485,1.312,3.18,3.18,0,0,1,.98,2.328,3.634,3.634,0,0,1-1.138,2.537,7.406,7.406,0,0,1-2.852,1.82,21.267,21.267,0,0,1-6.37,1.365q1.505.91,2.485,1.593a15.854,15.854,0,0,1,2.1,1.8A6.218,6.218,0,0,1,98.1-5.67a4,4,0,0,1,.315,1.435A6.108,6.108,0,0,1,96.845-.28a7.182,7.182,0,0,1-2.923,2.065,10.342,10.342,0,0,1-3.973.77q-4.48,0-4.9-3.15a.285.285,0,0,1-.07-.21Q83.65,1.33,82.775,1.33a4.064,4.064,0,0,1-.787-.122q-.543-.122-.56-.262T81.41.35a8.969,8.969,0,0,1,.665-2.187Q82.74-3.57,83.58-5.25q1.645-3.15,3.255-6.09a2.636,2.636,0,0,0,.28-.945,2.642,2.642,0,0,0-.035-.49,5.484,5.484,0,0,1,1.7-2.572A4.277,4.277,0,0,1,91.6-16.94a2.937,2.937,0,0,1,1.12.315,1.345,1.345,0,0,1,.84.875.971.971,0,0,1,.018.3q-.017.053-.192-.017a.975.975,0,0,0-.21-.07q-1.12,0-2.677,1.663A23.515,23.515,0,0,0,87.5-9.8a61.579,61.579,0,0,0-4.27,8.05,3.2,3.2,0,0,0-.28,1.085q0,.525.455.525T84.63-1.1q.77-.963,1.085-.945a.794.794,0,0,1,.508.192.938.938,0,0,1,.262.367,2.34,2.34,0,0,1,.1.543,2.653,2.653,0,0,0,.07.455Q87.22,2,90.195,2h.14a7.387,7.387,0,0,0,4.13-1.12,3.69,3.69,0,0,0,1.89-3.132A6.233,6.233,0,0,0,94.605-6.2,18.821,18.821,0,0,0,92.96-7.77q-2.31-2-2.38-2.555a.933.933,0,0,1,.472-.928,1.819,1.819,0,0,1,1-.367,13.33,13.33,0,0,0,4.69-1.225q4.375-1.785,4.69-3.955v-.21a1.673,1.673,0,0,0-.56-1.19q-.945-1.015-3.99-1.015a37.583,37.583,0,0,0-9.7,1.505,20.382,20.382,0,0,0-5.915,2.59q-2.8,1.855-2.8,3.955a1.638,1.638,0,0,0,.28.892,1.748,1.748,0,0,0,.647.63,9.263,9.263,0,0,0,.963.42q.6.227.857.35t.175.3q-.088.175-.507.1a4.2,4.2,0,0,1-2.31-.962,2.592,2.592,0,0,1-1.155-2.082A1.78,1.78,0,0,1,77.455-11.865Zm30.94,8.015a5.077,5.077,0,0,0,.63-1.995,3.111,3.111,0,0,0-.158-1.1.575.575,0,0,1,.14-.682.851.851,0,0,1,.753-.21q.7.175.7,1.575a7,7,0,0,1-1.645,3.675.87.87,0,0,0,.98.945q.945,0,2.87-2.03.91-1.05,1.137-1.365t.4-.227q.175.087.175.157a5.373,5.373,0,0,1-1.26,1.82q-2,2.45-3.535,2.45a1.468,1.468,0,0,1-1.435-.875q-.7.735-1.365,1.365A4.6,4.6,0,0,1,103.74.805,2.62,2.62,0,0,1,102.165.35a2.806,2.806,0,0,1-1.225-2.625,7.643,7.643,0,0,1,1.4-4.2,10.15,10.15,0,0,1,1.89-2.205,5.079,5.079,0,0,1,3.255-1.505,2.544,2.544,0,0,1,.735.105,1.332,1.332,0,0,1,1.05,1.33q0,.805-.42.805-.175-.07-.175-.525,0-.63-.7-.63-1.225,0-3.15,2.24a9.407,9.407,0,0,0-2.31,4.515,4.812,4.812,0,0,0-.07.857A2.432,2.432,0,0,0,102.76-.4a1.2,1.2,0,0,0,1.173.613,3.189,3.189,0,0,0,1.872-.77,8.183,8.183,0,0,0,1.82-1.96l-.105-.21a1,1,0,0,1,.14-.91A.627.627,0,0,1,108.395-3.85Zm6.79,4.235a2.663,2.663,0,0,1-1.208-.332,3.162,3.162,0,0,1-1.1-.945A2.16,2.16,0,0,1,112.42-2.2a2.935,2.935,0,0,1,.315-1.33,9.16,9.16,0,0,1,2.257-2.853A20.256,20.256,0,0,1,118.23-8.75a11.194,11.194,0,0,1,2.66-1.225,7.851,7.851,0,0,1,1.908-.245,2.678,2.678,0,0,1,1.592.473,1.286,1.286,0,0,1,.665,1,.364.364,0,0,1-.035.21q-.035.035-.175-.035a1.907,1.907,0,0,0-1.732-.665,6.628,6.628,0,0,0-2.975.858,15.438,15.438,0,0,0-3.132,2.152,13.7,13.7,0,0,0-2.153,2.608,4.8,4.8,0,0,0-.927,2.117q0,1.3.735,1.295A4.483,4.483,0,0,0,116.9-1.4a43.946,43.946,0,0,0,3.4-3.08,27.238,27.238,0,0,1,3.465-3.465,2.758,2.758,0,0,1,1.015.245q.6.245.385.595a11.142,11.142,0,0,0-2.1,5.075,7.542,7.542,0,0,0-.035.8,1.166,1.166,0,0,0,.28.805q.525.56,1.435.07a14.794,14.794,0,0,0,2.537-1.96,17.382,17.382,0,0,0,2.608-2.87.236.236,0,0,1,.315-.087q.175.087.175.157,0,.525-1.662,2.293a20.544,20.544,0,0,1-2.538,2.4A5.232,5.232,0,0,1,123.13.805a1.757,1.757,0,0,1-1.785-1.33,3.9,3.9,0,0,1-.1-.945,9.365,9.365,0,0,1,.665-3.325,13.53,13.53,0,0,0-1.3,1.4A20.8,20.8,0,0,1,117.933-.84,4.59,4.59,0,0,1,115.185.385Zm18.865.49q-1.785,0-1.785-2.153t3.08-5.3a4,4,0,0,0,.35-.385l.245-.35q.49-.665.455-.84l-.105-.315q-.14-.42-1.155-.612a9.244,9.244,0,0,0-1.645-.193Q130.34-4.83,129.85-4.2t-.665.525a.3.3,0,0,1-.175-.245.85.85,0,0,1,.21-.42,28.645,28.645,0,0,0,3.255-4.935,1.067,1.067,0,0,1-.63-.3q-.21-.227-.035-.77a4.375,4.375,0,0,1,1.068-1.452,5.931,5.931,0,0,1,1.557-1.225q.665-.315.84-.385a1.028,1.028,0,0,1,.385-.07q.42,0-.28,1.26l-1.365,2.17q1.575.1,2.695.1l1.225-.035a1.855,1.855,0,0,1,.875.157q.28.158.14.543a6.545,6.545,0,0,1-1.225,1.785,17.606,17.606,0,0,0-3.15,5.215,3.423,3.423,0,0,0-.245,1.155q0,1.015.735,1.015a2.509,2.509,0,0,0,.927-.385,16.146,16.146,0,0,0,2.293-1.838,17.209,17.209,0,0,0,2.59-2.853.255.255,0,0,1,.333-.087q.192.087.192.175a.355.355,0,0,1-.07.193,13.638,13.638,0,0,1-1.89,2.415,17.172,17.172,0,0,1-2.66,2.38A4.357,4.357,0,0,1,134.05.875Zm7.945-7.245a20.315,20.315,0,0,1,3.255-2.38,11.194,11.194,0,0,1,2.66-1.225,7.918,7.918,0,0,1,1.925-.245,2.924,2.924,0,0,1,1.785.63q4.8-11.13,9.17-11.13a2.168,2.168,0,0,1,1.995.84,1.512,1.512,0,0,1,.245.735,4.873,4.873,0,0,1-.753,2.222,14.561,14.561,0,0,1-2.327,2.958,52.888,52.888,0,0,1-4.515,3.972q-2.94,2.362-3.255,2.642a34.744,34.744,0,0,0-1.75,5,15.871,15.871,0,0,0-.63,3.605,3.66,3.66,0,0,0,.42,1.89.882.882,0,0,0,.63.542.926.926,0,0,0,.717-.105,3.889,3.889,0,0,0,.455-.332,2.016,2.016,0,0,1,.385-.263q.228-.123.333-.053t-.035.385a7.258,7.258,0,0,1-.525.6,2.26,2.26,0,0,1-1.312.385,8.84,8.84,0,0,1-1-.035q-1.68-.28-1.68-2.45a12.92,12.92,0,0,1,.56-3.885q.77-2.45,1.4-4.06Q144.55.385,142.2.385A2.663,2.663,0,0,1,141,.053a3.162,3.162,0,0,1-1.1-.945A2.16,2.16,0,0,1,139.44-2.2a2.935,2.935,0,0,1,.315-1.33A9.071,9.071,0,0,1,141.995-6.37Zm9.345-2.66a3.6,3.6,0,0,0-1.47-.21,6.335,6.335,0,0,0-2.713.858,15.438,15.438,0,0,0-3.132,2.152,13.7,13.7,0,0,0-2.152,2.608,4.8,4.8,0,0,0-.928,2.117q0,1.3.735,1.295a4.483,4.483,0,0,0,2.24-1.19,71.831,71.831,0,0,0,6.93-6.44Zm10.255-8.82a3.131,3.131,0,0,0,.455-1.417q0-.578-.507-.577a2.537,2.537,0,0,0-1.348.63q-3.85,2.94-6.965,9.835a30.472,30.472,0,0,0,4.76-3.92A19.688,19.688,0,0,0,161.595-17.85Z" transform="translate(-0.525 20.72)" fill="#333"/>
</svg>
