<svg xmlns="http://www.w3.org/2000/svg" width="716" height="664" viewBox="0 0 716 664">
  <path id="Path_18" data-name="Path 18" d="M17-339l-2-16q4-42,48.5-83T176-516q68-37,216-62,84-13,140.5-13t99.5,9.5q43,9.5,71,37.5t28,66.5q0,38.5-32.5,72.5T617-353q-95,35-182,39,43,26,71,45.5T566-217q32,32,41,55t9,41q0,59-45,113-30,37-83.5,59T374,73Q246,73,234-17q-2-2-2-6-38,61-63,61-7,0-22.5-3.5t-16-7.5q-.5-4-.5-17t19-62.5Q168-102,192-150q47-90,93-174,8-18,8-27a75.477,75.477,0,0,0-1-14q4-28,48.5-73.5T421-484q12,0,32,9t24,25q1,7,.5,8.5T472-442q-5-2-6-2-32,0-76.5,47.5T304-280Q219-140,182-50q-8,20-8,31,0,15,13,15t35-27.5q22-27.5,31-27T267.5-53A26.814,26.814,0,0,1,275-42.5q2,5.5,3,15.5t2,13q16,71,101,71h4q69,0,118-32,54-36,54-89.5T507-177q-16-18-47-45-66-57-68-73t13.5-26.5Q421-332,434-332q49,0,134-35,125-51,134-113v-6q0-18-16-34-27-29-114-29-119,0-277,43-96,26-169,74Q46-379,46-319q0,13,8,25.5t18.5,18a264.656,264.656,0,0,0,27.5,12q17,6.5,24.5,10t5,8.5q-2.5,5-14.5,3-33-2-66-27.5T16-329A50.875,50.875,0,0,1,17-339Z" transform="translate(-15 591)" fill="#333" opacity="0.1"/>
</svg>
