<svg xmlns="http://www.w3.org/2000/svg" width="10.668" height="53.858" viewBox="0 0 10.668 53.858">
  <path id="Path_12" data-name="Path 12" d="M3.738-5.936C2.618-6.37,1.96-6.972,1.96-7.994c0-1.2.938-1.82,2.212-1.82a2.444,2.444,0,0,1,1.344.35l.336,1.778h.742l.07-1.96a3.963,3.963,0,0,0-2.464-.8C2.352-10.444.9-9.45.9-7.7c0,1.47.994,2.352,2.562,2.982l.574.224c1.456.588,2.044,1.092,2.044,2.1,0,1.3-1.022,1.988-2.548,1.988A3.122,3.122,0,0,1,1.806-.84L1.47-2.688H.756l-.07,2.1A5.644,5.644,0,0,0,3.6.224C5.642.224,7.14-.854,7.14-2.632c0-1.414-.728-2.254-2.8-3.08ZM16.016-2.744,15.68-.84a4.36,4.36,0,0,1-1.932.434c-2.226,0-3.808-1.68-3.808-4.7,0-3,1.68-4.7,3.906-4.7a3.507,3.507,0,0,1,1.694.434l.336,1.89h.77l-.056-2.2a5.544,5.544,0,0,0-2.9-.756A5.067,5.067,0,0,0,8.568-5.11,4.989,4.989,0,0,0,13.692.224,5.936,5.936,0,0,0,16.73-.532l.042-2.212Zm4.83-2.562c0-1.624,0-2.982.042-4.326H22.33c1.666,0,2.422.756,2.422,2.086a2.224,2.224,0,0,1-2.52,2.24Zm5,4.676-.756-2.478c-.35-1.106-.812-1.624-1.68-1.82a2.736,2.736,0,0,0,2.562-2.6c0-1.708-1.33-2.674-3.612-2.674H18.186v.49l1.456.154c.042,1.344.042,2.716.042,4.074v.77c0,1.372,0,2.73-.042,4.06L18.186-.5V0h4.158V-.5L20.888-.658c-.042-1.316-.042-2.646-.042-4.088h.938c1.288,0,1.778.266,2.1,1.484l.7,2.52c.168.63.532.882,1.442.882A4.025,4.025,0,0,0,27.1,0V-.5Zm3.374-4.48c0-2.408,1.036-4.7,3.248-4.7,2.184,0,3.22,2.3,3.22,4.7S34.65-.392,32.466-.392C30.254-.392,29.218-2.688,29.218-5.11Zm3.248-5.334c-2.394,0-4.62,2.03-4.62,5.334,0,3.416,2.212,5.334,4.62,5.334,2.38,0,4.578-2.016,4.578-5.334C37.044-8.526,34.846-10.444,32.466-10.444ZM45.094-2.786,44.646-.63h-3.7c-.042-1.33-.042-2.674-.042-3.808v-.98c0-1.428,0-2.8.042-4.144l1.456-.154v-.49H38.248v.49l1.456.154c.042,1.33.042,2.688.042,4.074V-4.7c0,1.344,0,2.7-.042,4.046L38.248-.5V0H45.71l.126-2.786Zm8.708,0L53.354-.63h-3.7c-.042-1.33-.042-2.674-.042-3.808v-.98c0-1.428,0-2.8.042-4.144l1.456-.154v-.49H46.956v.49l1.456.154c.042,1.33.042,2.688.042,4.074V-4.7c0,1.344,0,2.7-.042,4.046L46.956-.5V0h7.462l.126-2.786Z" transform="translate(0.224 -0.686) rotate(90)" fill="#333"/>
</svg>
